<?xml version="1.0" encoding="utf-8"?>
<!-- Generator: Adobe Illustrator 27.0.0, SVG Export Plug-In . SVG Version: 6.00 Build 0)  -->
<svg version="1.1" id="Layer_1" xmlns="http://www.w3.org/2000/svg" xmlns:xlink="http://www.w3.org/1999/xlink" x="0px" y="0px"
	 viewBox="0 0 24 24" style="enable-background:new 0 0 24 24;" xml:space="preserve">
<style type="text/css">
	.st0{fill:#FFFFFF;}
</style>
<g>
	<g>
		<path class="st0" d="M19,3H5C3.9,3,3,3.9,3,5v14c0,1.1,0.9,2,2,2h14c1.1,0,2-0.9,2-2V5C21,3.9,20.1,3,19,3z M19,19H5V5h14V19z"/>
		<rect x="6.2" y="7.7" class="st0" width="5" height="1.5"/>
		<rect x="13" y="15.8" class="st0" width="5" height="1.5"/>
		<rect x="13" y="13.2" class="st0" width="5" height="1.5"/>
		<polygon class="st0" points="8,18 9.5,18 9.5,16 11.5,16 11.5,14.5 9.5,14.5 9.5,12.5 8,12.5 8,14.5 6,14.5 6,16 8,16 		"/>
		<polygon class="st0" points="14.1,10.9 15.5,9.5 16.9,10.9 18,9.9 16.6,8.5 18,7.1 16.9,6 15.5,7.4 14.1,6 13,7.1 14.4,8.5 
			13,9.9 		"/>
	</g>
</g>
</svg>
