<svg width="70" height="65" viewBox="0 0 70 65" fill="none" xmlns="http://www.w3.org/2000/svg">
<path d="M69.0594 45.0901C68.7383 46.4283 67.8684 47.365 66.8648 48.2616C63.0242 51.674 59.1703 55.0863 55.41 58.5789C53.4028 60.439 51.0877 61.4426 48.398 61.7906C42.9382 62.5132 37.4785 63.3696 32.0187 64.1324C27.2816 64.8015 27.7633 64.962 23.5213 63.3027C23.0396 63.1153 22.5712 62.9414 22.0895 62.7674C19.6406 61.8441 17.1918 60.9074 14.7295 59.984C14.4887 59.8904 14.2344 59.8101 13.9935 59.7298C13.9534 59.7967 13.9133 59.8234 13.9133 59.8636C13.8062 62.0314 13.0568 62.754 10.9024 62.754C8.3866 62.754 5.87083 62.754 3.35506 62.754C1.60205 62.754 0.678711 61.8307 0.678711 60.0777C0.678711 51.6873 0.678711 43.297 0.678711 34.9066C0.678711 33.1269 1.61543 32.1901 3.3952 32.1768C6.00464 32.1768 8.6007 32.1768 11.2101 32.1768C12.9498 32.1768 13.8999 33.1269 13.8999 34.8531C13.8999 35.6025 13.8999 36.3652 13.8999 37.1012C14.9035 37.2618 15.8937 37.3287 16.8171 37.6097C18.1285 37.9978 19.3998 38.5465 20.671 39.055C21.0859 39.2156 21.4606 39.4564 21.8352 39.6973C24.806 41.6377 28.0711 42.4406 31.6039 42.5878C34.936 42.7216 38.268 43.0561 41.5733 43.4843C44.3701 43.8456 46.364 46.1205 46.6182 48.9173C46.6584 49.4124 46.8056 49.6266 47.3275 49.6266C47.9296 49.6132 48.5318 49.7202 49.1206 49.6935C49.4284 49.6801 49.7629 49.5463 50.0172 49.3723C54.1789 46.6023 58.3273 43.7921 62.5024 41.0355C64.9914 39.3895 68.0424 40.5136 68.9256 43.3639C68.9524 43.4576 69.0193 43.5512 69.0594 43.6449C69.0594 44.1133 69.0594 44.595 69.0594 45.0901ZM13.8865 39.2022C13.8865 39.7374 13.8865 40.2058 13.8865 40.6742C13.8865 40.9418 13.8999 41.2094 13.8865 41.4771C13.8597 42.1462 13.4583 42.5744 12.8695 42.561C12.2941 42.5476 11.8926 42.1194 11.8792 41.4503C11.8658 39.3092 11.8525 37.1815 11.8926 35.0405C11.906 34.3981 11.7053 34.1706 11.0629 34.184C8.54717 34.2108 6.03141 34.1974 3.51564 34.1974C2.69936 34.1974 2.65921 34.2375 2.65921 35.0806C2.65921 43.3371 2.65921 51.5937 2.65921 59.8502C2.65921 60.7468 2.65921 60.7602 3.52902 60.7602C6.01802 60.7602 8.52041 60.7602 11.0094 60.7602C11.8525 60.7602 11.8658 60.7468 11.8658 59.9037C11.8658 55.8357 11.8658 51.7542 11.8658 47.6862C11.8658 47.1242 11.8391 46.5755 11.8792 46.0135C11.9327 45.4514 12.2807 45.1169 12.8561 45.1169C13.4181 45.1169 13.7527 45.4515 13.8463 46.0001C13.8731 46.2008 13.8597 46.4016 13.8597 46.6023C13.8597 50.0548 13.8731 53.5073 13.8463 56.9464C13.8463 57.4013 13.9802 57.6021 14.4084 57.7626C18.3961 59.2614 22.3705 60.8137 26.385 62.2589C27.1879 62.5533 28.1514 62.647 28.9945 62.5399C35.4311 61.6701 41.8409 60.6933 48.2776 59.8101C50.4454 59.5157 52.3189 58.7395 53.9113 57.214C55.5706 55.6349 57.3102 54.1362 59.0097 52.5973C61.3783 50.4696 63.7335 48.3419 66.1154 46.2142C66.7979 45.612 67.1726 44.8894 66.9585 43.9661C66.5972 42.387 64.9111 41.8116 63.4792 42.7751C59.2372 45.5986 55.0086 48.4356 50.78 51.2859C50.2313 51.6606 49.696 51.8212 49.0403 51.7543C47.8895 51.6472 46.7253 51.5268 45.5745 51.5803C42.5769 51.7141 39.5794 51.9683 36.5819 52.1423C33.009 52.3564 29.4361 52.5705 25.8498 52.7445C24.5919 52.8114 23.5615 52.2628 22.7184 51.3528C22.2768 50.8711 22.2768 50.2555 22.6917 49.8674C23.0931 49.5061 23.6953 49.5061 24.1235 49.9611C24.7257 50.59 25.4349 50.8041 26.2914 50.7506C30.9348 50.4562 35.5783 50.1752 40.2218 49.8942C41.667 49.8005 43.0988 49.7068 44.5307 49.6132C44.7582 47.5658 43.0453 45.5986 40.8908 45.4113C37.1707 45.0768 33.4506 44.6753 29.7171 44.4746C27.0809 44.3274 24.6454 43.6449 22.3839 42.3335C21.4472 41.7849 20.4837 41.263 19.5202 40.7678C17.8073 39.8177 15.9607 39.3092 13.8865 39.2022Z" fill="#F58220"/>
<path d="M34.7886 0.609375C38.0538 0.609375 41.3323 0.609375 44.5974 0.609375C46.1899 0.609375 46.8188 1.15803 47.0463 2.71031C47.5281 5.92193 49.2141 8.25035 52.1581 9.64205C53.5364 10.2978 54.0182 11.007 53.8175 12.5459C52.4525 23.2647 47.9429 32.1368 38.5757 38.0783C37.7326 38.6135 36.8227 39.0417 35.9528 39.5369C35.3105 39.8982 34.7217 39.858 34.0526 39.5502C25.9701 35.6562 20.7512 29.2731 17.7671 20.9362C16.8036 18.2331 16.1479 15.4363 15.8401 12.5727C15.7063 11.3683 16.1613 10.4985 17.2719 9.97659C20.43 8.47784 22.183 6.00222 22.5711 2.52297C22.6915 1.41229 23.4944 0.756579 24.6988 0.756579C28.0576 0.743197 31.4164 0.756579 34.7753 0.756579C34.7886 0.68967 34.7886 0.64952 34.7886 0.609375ZM24.6051 2.69693C24.565 2.92442 24.5382 3.03147 24.5248 3.13853C23.9494 7.09952 21.8886 9.94984 18.2756 11.6895C17.9143 11.8634 17.7804 12.0775 17.8607 12.479C18.2354 14.3524 18.4897 16.2526 18.9982 18.0859C21.3132 26.2087 25.8095 32.6988 33.3033 36.8873C35.0027 37.8374 35.0161 37.8508 36.6888 36.8605C46.0427 31.3339 50.472 22.7695 51.837 12.3184C51.9039 11.8233 51.6898 11.6092 51.2749 11.4218C48.0232 9.88293 46.0159 7.35377 45.213 3.84776C45.1193 3.44631 45.0658 3.03148 44.9989 2.69693C38.1742 2.69693 31.4031 2.69693 24.6051 2.69693Z" fill="#F58220"/>
<path d="M7.14203 51.888C9.08238 51.9014 10.6614 53.5072 10.6347 55.4342C10.6213 57.3879 8.97532 58.9937 7.03497 58.967C5.09462 58.9402 3.54234 57.3478 3.55572 55.4074C3.5691 53.4135 5.14815 51.8613 7.14203 51.888ZM5.57636 55.4074C5.57636 56.2505 6.24546 56.9329 7.07512 56.9463C7.91817 56.9597 8.65417 56.2237 8.6274 55.3807C8.61402 54.5376 7.91817 53.8819 7.07512 53.8819C6.23207 53.8953 5.57636 54.5644 5.57636 55.4074Z" fill="#F58220"/>
<path d="M34.8022 4.38281C37.211 4.38281 39.6063 4.38281 42.015 4.38281C43.1525 4.38281 43.5941 4.6906 43.9554 5.73437C44.8653 8.4241 46.5113 10.5518 48.8932 12.0907C49.7095 12.6126 50.0708 13.2415 49.8433 14.205C49.6158 15.1284 49.4686 16.0785 49.2545 17.0152C49.0939 17.6843 48.6122 18.0322 48.0635 17.9118C47.4614 17.7913 47.167 17.2828 47.3008 16.5736C47.448 15.8108 47.6621 15.0614 47.7825 14.2853C47.8093 14.0712 47.6755 13.7099 47.5015 13.5894C45.0393 11.8632 43.2729 9.61508 42.2024 6.80491C42.1221 6.61757 41.8009 6.39007 41.6002 6.39007C37.0771 6.40346 32.5675 6.4436 28.0445 6.45698C27.6832 6.45698 27.5493 6.60418 27.4423 6.91196C26.4387 9.72213 24.699 11.9703 22.2769 13.7099C22.0896 13.8437 21.9558 14.2318 21.9959 14.4726C22.1164 15.2354 22.3305 15.9848 22.491 16.7475C22.6249 17.4033 22.3305 17.9118 21.7684 18.0456C21.2599 18.166 20.7246 17.8448 20.5774 17.2293C20.3098 16.132 20.0556 15.0213 19.8548 13.9106C19.7478 13.2951 20.0422 12.7732 20.5774 12.4386C23.1467 10.7927 24.8864 8.50439 25.8097 5.58717C26.064 4.78426 26.5725 4.46311 27.4958 4.46311C29.9447 4.46311 32.3935 4.46311 34.8424 4.46311C34.8023 4.44973 34.8022 4.42296 34.8022 4.38281Z" fill="#F58220"/>
<path d="M34.9897 35.6963C34.6417 35.5625 34.3473 35.4822 34.0797 35.335C28.5263 32.2706 24.6589 27.7074 22.1566 21.9265C21.8622 21.244 22.0361 20.7087 22.6115 20.4679C23.1736 20.2136 23.6955 20.4813 24.0166 21.2039C25.5288 24.6697 27.5762 27.7877 30.4399 30.2767C31.6844 31.374 33.1162 32.2572 34.4544 33.2474C34.8425 33.5418 35.1369 33.4749 35.5383 33.2341C40.1149 30.4373 43.3666 26.5164 45.5479 21.6455C45.6415 21.418 45.7352 21.1905 45.8422 20.9764C46.15 20.3474 46.6452 20.1066 47.1804 20.3341C47.7425 20.5749 47.9566 21.1236 47.6755 21.7793C46.6184 24.3218 45.2668 26.6904 43.5406 28.8315C41.4397 31.4543 38.9373 33.5954 36.02 35.2547C35.6855 35.442 35.3242 35.5491 34.9897 35.6963Z" fill="#F58220"/>
<path d="M34.2265 22.1403C36.1669 19.2231 38.0403 16.3862 39.9138 13.5493C40.0074 13.4021 40.1011 13.2415 40.2082 13.1077C40.5962 12.5992 41.1449 12.4921 41.6132 12.7999C42.0816 13.1077 42.2154 13.6697 41.8809 14.205C41.1449 15.3692 40.3687 16.5066 39.606 17.6575C38.2143 19.745 36.836 21.8459 35.4443 23.9335C34.8153 24.8702 34.2667 24.9371 33.4504 24.161C32.2059 22.9834 30.9614 21.8058 29.7302 20.6282C29.1415 20.0662 29.0612 19.4506 29.5028 19.009C29.9444 18.5674 30.493 18.6076 31.0818 19.1696C32.0988 20.1197 33.1292 21.1099 34.2265 22.1403Z" fill="#F58220"/>
</svg>
